<svg width="21" height="20" viewBox="0 0 21 20" fill="none" xmlns="http://www.w3.org/2000/svg">
<g clip-path="url(#clip0_11_258)">
<path d="M19.3679 7.48464L10.5025 16.3765C10.3969 16.482 10.2826 16.5569 10.1594 16.6013C10.0363 16.6456 9.90439 16.6674 9.76367 16.6667C9.62295 16.6667 9.49102 16.6445 9.36789 16.6002C9.24476 16.5559 9.13042 16.4813 9.02488 16.3765L0.133065 7.48464C-0.113197 7.23838 -0.236328 6.93055 -0.236328 6.56116C-0.236328 6.19177 -0.104402 5.87514 0.15945 5.61129C0.423302 5.34744 0.73113 5.21551 1.08293 5.21551C1.43474 5.21551 1.74256 5.34744 2.00642 5.61129L9.76367 13.3685L17.5209 5.61129C17.7672 5.36503 18.0708 5.2419 18.4317 5.2419C18.7927 5.2419 19.1047 5.37382 19.3679 5.63768C19.6317 5.90153 19.7637 6.20936 19.7637 6.56116C19.7637 6.91296 19.6317 7.22079 19.3679 7.48464Z" fill="white"/>
</g>
<defs>
<clipPath id="clip0_11_258">
<rect width="20" height="20" fill="white" transform="matrix(0 -1 1 0 0.0439453 19.9961)"/>
</clipPath>
</defs>
</svg>
